<svg width="28" height="29" viewBox="0 0 28 29" fill="none" xmlns="http://www.w3.org/2000/svg">
<path d="M25.7647 18.9775C25.1219 20.6721 24.1516 22.2113 22.9141 23.4998C20.8752 25.6249 18.2062 26.9707 15.3401 27.3188C12.474 27.6668 9.57884 26.9968 7.12453 25.4174C6.96651 25.3371 6.79184 25.2993 6.61618 25.3074C6.44052 25.3154 6.26947 25.3691 6.11883 25.4634C3.8942 26.4474 0.804688 27.7621 0.804688 27.7621C0.804688 27.7621 2.32949 23.8096 2.96912 22.1725C3.05811 22.0165 3.10824 21.8399 3.11526 21.6586C3.12228 21.4773 3.08583 21.2971 3.00919 21.1341C1.40701 18.4502 0.77431 15.2607 1.22386 12.1358C1.67342 9.01087 3.17596 6.15419 5.46315 4.0764C7.7982 1.96638 10.7866 0.804565 13.8789 0.804565C16.9712 0.804565 19.9597 1.96638 22.2948 4.0764C23.6116 5.27665 24.6777 6.74548 25.427 8.39194C26.1763 10.0384 26.5929 11.8274 26.651 13.6483C26.709 15.4691 26.4074 17.2829 25.7647 18.9775Z" stroke="#32201C" stroke-width="1.60913" stroke-linecap="round" stroke-linejoin="round"/>
</svg>
