<svg width="28" height="29" viewBox="0 0 28 29" fill="none" xmlns="http://www.w3.org/2000/svg">
<path d="M20.1866 9.32452C19.3667 8.17835 18.2769 7.27127 17.0219 6.69076C15.767 6.11025 14.3894 5.87588 13.0221 6.01027C11.1972 6.19341 9.48765 7.02128 8.17818 8.35601C6.86871 9.69075 6.03829 11.4518 5.82518 13.346C5.69707 14.5112 5.80709 15.6914 6.1481 16.8092C6.48912 17.9271 7.05345 18.9573 7.80399 19.8325C8.55452 20.7077 9.47439 21.408 10.5033 21.8875C11.5322 22.367 12.6468 22.6149 13.7742 22.615C15.7851 22.6143 17.7222 21.826 19.1997 20.407C20.6772 18.9879 21.5868 17.0422 21.7476 14.9571C21.7531 14.8726 21.7418 14.7879 21.7146 14.7082C21.6874 14.6284 21.6448 14.5553 21.5894 14.4933C21.534 14.4314 21.4669 14.3819 21.3924 14.3479C21.3179 14.314 21.2375 14.2963 21.1561 14.2959H13.8547M26.7197 14.2833C26.7197 21.7274 20.9185 27.7621 13.7622 27.7621C6.60597 27.7621 0.804688 21.7274 0.804688 14.2833C0.804688 6.83921 6.60597 0.804565 13.7622 0.804565C20.9185 0.804565 26.7197 6.83921 26.7197 14.2833Z" stroke="#32201C" stroke-width="1.60913" stroke-linecap="round" stroke-linejoin="round"/>
</svg>
