<svg width="28" height="29" viewBox="0 0 28 29" fill="none" xmlns="http://www.w3.org/2000/svg">
<path d="M23.3068 23.4443C25.5047 20.9522 26.7241 17.6909 26.7236 14.3064C26.7236 12.5329 26.3884 10.7769 25.737 9.1385C25.0856 7.50011 24.1307 6.0115 22.9271 4.75768C21.7235 3.50387 20.2945 2.50941 18.722 1.83113C17.1494 1.15285 15.4641 0.804015 13.7622 0.804565C10.3256 0.804565 7.02986 2.22707 4.59986 4.75915C2.16985 7.29124 0.804688 10.7255 0.804688 14.3064C0.804895 17.3847 1.81445 20.3704 3.66624 22.7689C5.51803 25.1673 8.10089 26.8344 10.9865 27.4938V18.6072H7.2693V14.5747H10.9904V11.0745C10.9904 10.0061 11.3978 8.9815 12.1228 8.22604C12.8478 7.47059 13.831 7.04618 14.8563 7.04618H18.2757V11.0787H16.381C15.9766 11.0787 15.5889 11.2461 15.303 11.544C15.017 11.8419 14.8563 12.246 14.8563 12.6674V14.5747H18.5654V18.6072H14.8563V27.7621C18.0929 27.4773 21.1089 25.9363 23.3068 23.4443Z" stroke="#32201C" stroke-width="1.60913" stroke-linecap="round" stroke-linejoin="round"/>
</svg>
