<svg width="153" height="153" viewBox="0 0 153 153" fill="none" xmlns="http://www.w3.org/2000/svg">
<circle cx="76.3365" cy="76.3365" r="76.3365" fill="#FFFDF9"/>
<path d="M60.0266 89.6427C58.0156 94.7141 56.4816 99.9808 55.4468 105.368C54.7217 109.39 54.1492 116.026 57.4696 118.922C58.135 119.595 58.9585 120.069 59.8554 120.295C60.7523 120.521 61.6902 120.491 62.5725 120.208C63.4549 119.926 64.2498 119.4 64.8756 118.686C65.5014 117.973 65.9354 117.096 66.133 116.147C66.6291 112.688 65.6749 97.2839 65.5604 93.3023C65.5604 90.6881 65.5604 88.0336 65.5604 85.2585C65.5604 70.3776 65.0644 45.6037 65.0262 30.7228C64.9951 30.272 64.8426 29.8392 64.5864 29.4767C64.3302 29.1142 63.9811 28.837 63.5802 28.6765C63.1793 28.5159 62.7432 28.4787 62.3233 28.5704C61.9033 28.6622 61.517 28.8787 61.2097 29.1939C51.2869 41.8628 47.0506 58.353 53.1951 73.9578C54.2328 76.7851 55.9194 79.2969 58.104 81.2691C60.2885 83.2413 62.9028 84.6117 65.7131 85.2585" stroke="#FD5D69" stroke-width="4.30892" stroke-linecap="round" stroke-linejoin="round"/>
<path d="M86.7287 67.7586C86.2707 76.4458 84.5152 84.9718 83.3702 93.5786C82.3404 99.0885 81.8417 104.694 81.8818 110.309C82.1871 114.613 83.6756 120.404 88.7133 120.444C90.0939 120.488 91.4451 120.019 92.5298 119.118C93.7441 117.826 94.5789 116.191 94.9341 114.412C95.5406 111.781 95.7595 109.068 95.5829 106.368C95.5829 102.064 94.6288 97.8821 94.0563 93.6591C92.9114 85.0524 91.1558 76.5263 90.6978 67.8391M85.2784 30.1134L85.2784 50.2228M92.3007 50.102L92.3007 29.9927M79.0576 30.1134L79.0576 57.6636C79.0677 60.359 80.0882 62.9413 81.8968 64.8472C83.7054 66.7532 86.1555 67.8285 88.7133 67.8391C91.271 67.8285 93.7211 66.7532 95.5297 64.8472C97.3384 62.9413 98.3589 60.359 98.3689 57.6636L98.3689 30.1134" stroke="#FD5D69" stroke-width="4.30892" stroke-linecap="round" stroke-linejoin="round"/>
</svg>
